<?xml version="1.0" encoding="utf-8"?>
<!-- Generator: Adobe Illustrator 22.0.1, SVG Export Plug-In . SVG Version: 6.00 Build 0)  -->
<svg version="1.1" id="Layer_1" xmlns="http://www.w3.org/2000/svg" xmlns:xlink="http://www.w3.org/1999/xlink" x="0px" y="0px"
	 width="112px" height="76px" viewBox="0 0 112 76" style="enable-background:new 0 0 112 76;" xml:space="preserve">
<style type="text/css">
	.st0{fill:#53686D;}
</style>
<g>
	<path class="st0" d="M17.4,66.1c-1.2,0.4-3.4,1.1-6.1,1.1c-3,0-5.5-0.8-7.4-2.6c-1.7-1.7-2.8-4.3-2.8-7.4c0-5.9,4.1-10.3,10.8-10.3
		c2.3,0,4.1,0.5,5,0.9l-0.6,2.1c-1.1-0.5-2.4-0.9-4.4-0.9c-4.8,0-8,3-8,8c0,5,3,8,7.7,8c1.7,0,2.8-0.2,3.4-0.5v-5.9h-4v-2.1h6.6
		V66.1z"/>
	<path class="st0" d="M23.9,47.1v11.8c0,4.5,2,6.3,4.6,6.3c3,0,4.8-1.9,4.8-6.3V47.1H36v11.6c0,6.1-3.2,8.6-7.5,8.6
		c-4.1,0-7.1-2.3-7.1-8.5V47.1H23.9z"/>
	<path class="st0" d="M40.5,47.4c1.6-0.2,3.4-0.4,5.5-0.4c3.7,0,6.3,0.9,8.1,2.5c1.8,1.6,2.8,3.9,2.8,7.1c0,3.2-1,5.9-2.9,7.7
		c-1.9,1.9-4.9,2.9-8.8,2.9c-1.8,0-3.4-0.1-4.7-0.2V47.4z M43,65c0.6,0.1,1.6,0.1,2.6,0.1c5.5,0,8.5-3.1,8.5-8.4
		c0-4.7-2.6-7.7-8.1-7.7c-1.3,0-2.3,0.1-3,0.3V65z"/>
	<path class="st0" d="M62.9,60.8L60.9,67h-2.7L65,47.1h3.1L74.8,67h-2.7L70,60.8H62.9z M69.4,58.7L67.5,53c-0.4-1.3-0.7-2.5-1-3.6
		h-0.1c-0.3,1.2-0.6,2.4-1,3.6l-1.9,5.8H69.4z"/>
	<path class="st0" d="M77.4,63.9c1.2,0.7,2.8,1.3,4.6,1.3c2.6,0,4.2-1.4,4.2-3.4c0-1.9-1.1-2.9-3.7-4c-3.2-1.2-5.3-2.8-5.3-5.6
		c0-3.1,2.6-5.4,6.4-5.4c2,0,3.5,0.5,4.4,1l-0.7,2.1c-0.6-0.4-2-0.9-3.8-0.9c-2.7,0-3.7,1.6-3.7,3c0,1.9,1.2,2.8,4,3.8
		c3.4,1.3,5.1,2.9,5.1,5.8c0,3.1-2.3,5.7-7,5.7c-1.9,0-4-0.6-5.1-1.3L77.4,63.9z"/>
	<path class="st0" d="M92.3,47.1h2.6v9.6H95c0.5-0.8,1.1-1.5,1.6-2.1l6.1-7.5h3.2l-7.2,8.4l7.8,11.5h-3l-6.6-9.8l-1.9,2.2V67h-2.6
		V47.1z"/>
	<path class="st0" d="M110.9,47.1V67h-2.6V47.1H110.9z"/>
</g>
<path class="st0" d="M1.1,39.7c0.7-0.1,1.4-0.5,2-0.9c1.3-0.8,4.2-3.6,5.7-3c0.3,0.1,0.6,0.3,0.9,0.4c0.3,0.1,0.7-0.1,1-0.2
	c3.1-1.1,7.4-2.4,9.9-4.7c-0.6,2.9-2.3,5.6-4.7,7.4c6.2-2.7,11.2-7.9,13.7-14.2c1,1,1.4,2.4,1.9,3.7c2.8,7.5,10.4,12.9,18.4,13.2
	c-3.4-1.6-6.4-4-8.8-6.9c-0.5-0.6-1-1.4-1-2.2c0-0.9,0.7-1.6,1.3-2.2c3.8-3.8,8.1-7.1,12.6-9.9c-0.4,2.7-1.5,5.3-3.1,7.5
	c0.8-1.1,2.8-1.7,3.8-3c1.2-1.5,2-3.2,2.9-4.8c0.6-1,5.2-9.1,6.8-7c0.5,0.6,0.3,1.5,0.1,2.2c-2,6.8-3.9,13.6-5.9,20.5
	c4.3-5.8,7.7-12.4,10-19.2c0.5-1.4,1.3-3.1,2.8-3.1c1.4,0,2.2,1.6,2.7,2.9c1.8,4.6,3.8,9.1,7.1,12.8c3.2,3.7,7.9,6.3,12.8,6.2
	c-4.4-1.4-7.6-6-7.4-10.6c2.1,2.3,4.1,4.7,6.2,7c1.4,1.6,2.8,3.2,4.5,4.4c3.9,2.8,8.9,3.3,13.7,3.7c-8-2.6-12.8-10.4-17.6-17.2
	c-0.5-0.7-1-1.4-1.8-1.8c-0.6-0.3-1.3-0.4-2-0.5c-4.3-0.7-8-3.5-10.9-6.8c-2.9-3.3-5.1-7.1-7.8-10.5c-0.8-1-1.7-2-3-2.1
	c-1-0.1-1.9,0.5-2.7,1c-4.6,3-9,6.5-12.9,10.5c-3.5,3.5-6.8,7.4-11.1,9.8c-0.4,0.2-0.8,0.4-1.3,0.4c-0.6-0.1-1.1-0.6-1.5-1.1
	c-1.8-2.1-3.8-3.9-6.1-5.4c-0.4-0.2-0.8-0.5-1.2-0.5c-0.5,0-0.9,0.3-1.3,0.6c-1.6,1.2-3.1,2.6-4.5,4.1c-3.5,4-6,9.9-11.1,12.2
	c-2,0.9-4,0.4-6.1,0.7C5.1,33.8,3,37.5,1.1,39.7z"/>
<g>
	<path class="st0" d="M2.1,73.9l-0.3,1H1.4l1-3.1h0.5L4,74.8H3.5l-0.3-1H2.1z M3.1,73.6l-0.3-0.9c-0.1-0.2-0.1-0.4-0.2-0.6h0
		c0,0.2-0.1,0.4-0.2,0.6l-0.3,0.9H3.1z"/>
	<path class="st0" d="M13.7,71.8c0.2,0,0.4-0.1,0.8-0.1c0.4,0,0.7,0.1,0.9,0.3c0.2,0.1,0.3,0.4,0.3,0.6c0,0.3-0.1,0.5-0.2,0.7
		c-0.2,0.2-0.6,0.3-0.9,0.3c-0.1,0-0.2,0-0.3,0v1.2h-0.4V71.8z M14.1,73.3c0.1,0,0.2,0,0.3,0c0.5,0,0.8-0.2,0.8-0.7
		c0-0.4-0.3-0.6-0.7-0.6c-0.2,0-0.3,0-0.4,0V73.3z"/>
	<path class="st0" d="M25.6,73.9l-0.3,1h-0.4l1-3.1h0.5l1.1,3.1H27l-0.3-1H25.6z M26.6,73.6l-0.3-0.9c-0.1-0.2-0.1-0.4-0.2-0.6h0
		c0,0.2-0.1,0.4-0.2,0.6l-0.3,0.9H26.6z"/>
	<path class="st0" d="M37.2,71.8c0.2,0,0.5-0.1,0.8-0.1c0.4,0,0.7,0.1,0.9,0.3c0.2,0.1,0.2,0.3,0.2,0.6c0,0.4-0.3,0.7-0.6,0.8v0
		c0.2,0.1,0.4,0.3,0.5,0.6c0.1,0.4,0.2,0.7,0.2,0.8h-0.4c-0.1-0.1-0.1-0.4-0.2-0.7c-0.1-0.4-0.3-0.6-0.6-0.6h-0.4v1.3h-0.4V71.8z
		 M37.6,73.2H38c0.4,0,0.7-0.2,0.7-0.6c0-0.4-0.3-0.6-0.7-0.6c-0.2,0-0.3,0-0.4,0V73.2z"/>
	<path class="st0" d="M49.6,72.1h-0.9v-0.3H51v0.3H50v2.7h-0.4V72.1z"/>
	<path class="st0" d="M63.2,73.5c0-0.4-0.1-0.9,0-1.3h0c-0.1,0.4-0.2,0.7-0.4,1.2l-0.5,1.5H62l-0.5-1.5c-0.1-0.4-0.3-0.8-0.4-1.2h0
		c0,0.4,0,0.9-0.1,1.4l-0.1,1.3h-0.4l0.2-3.1h0.5l0.5,1.5c0.1,0.4,0.2,0.7,0.3,1h0c0.1-0.3,0.2-0.6,0.3-1l0.5-1.5h0.5l0.2,3.1h-0.4
		L63.2,73.5z"/>
	<path class="st0" d="M75.2,73.4H74v1.1h1.3v0.3h-1.7v-3.1h1.7v0.3H74v1h1.2V73.4z"/>
	<path class="st0" d="M85.2,74.8v-3.1h0.4l1,1.6c0.2,0.4,0.4,0.7,0.6,1l0,0c0-0.4,0-0.8,0-1.3v-1.3h0.4v3.1h-0.4l-1-1.6
		c-0.2-0.3-0.4-0.7-0.6-1l0,0c0,0.4,0,0.8,0,1.3v1.3H85.2z"/>
	<path class="st0" d="M98.1,72.1h-0.9v-0.3h2.3v0.3h-0.9v2.7h-0.4V72.1z"/>
	<path class="st0" d="M109.1,74.4c0.2,0.1,0.4,0.2,0.7,0.2c0.4,0,0.6-0.2,0.6-0.5c0-0.3-0.2-0.5-0.6-0.6c-0.5-0.2-0.8-0.4-0.8-0.9
		c0-0.5,0.4-0.8,1-0.8c0.3,0,0.5,0.1,0.7,0.2l-0.1,0.3c-0.1-0.1-0.3-0.1-0.6-0.1c-0.4,0-0.6,0.3-0.6,0.5c0,0.3,0.2,0.4,0.6,0.6
		c0.5,0.2,0.8,0.5,0.8,0.9c0,0.5-0.4,0.9-1.1,0.9c-0.3,0-0.6-0.1-0.8-0.2L109.1,74.4z"/>
</g>
</svg>
